<svg height="470pt" viewBox="0 -19 470.47458 470" width="470pt" xmlns="http://www.w3.org/2000/svg"><path d="m142.226562 293.820312h186.023438v40.488282h-186.023438zm0 0" fill="#f4b844"/><path d="m462.597656 257.9375v.011719c-.003906 22.328125-17.835937 40.5625-40.160156 41.070312v-82.152343c22.324219.507812 40.15625 18.742187 40.160156 41.070312zm0 0" fill="#f4b844"/><path d="m48.039062 299.019531v-172.121093h374.398438v296.351562h-374.398438zm288.75-52.070312v-52.871094h-52.859374v52.871094zm-8.539062 128.597656v-81.726563h-186.023438v81.726563zm-141.703125-128.597656v-52.871094h-52.859375v52.871094zm0 0" fill="#fedb41"/><g fill="#f4b844"><path d="m283.929688 194.078125h52.859374v52.871094h-52.859374zm0 0"/><path d="m142.226562 334.308594h186.023438v41.238281h-186.023438zm0 0"/><path d="m235.238281 8.25c18.4375 0 33.378907 14.949219 33.378907 33.386719 0 18.433593-14.945313 33.382812-33.382813 33.382812s-33.382813-14.945312-33.386719-33.382812c0-18.4375 14.949219-33.386719 33.390625-33.386719zm0 0"/><path d="m133.6875 194.078125h52.859375v52.871094h-52.859375zm0 0"/><path d="m48.039062 216.867188v82.152343c-22.324218-.507812-40.15625-18.742187-40.160156-41.070312v-.011719c.003906-22.328125 17.835938-40.5625 40.160156-41.070312zm0 0"/></g><path d="m430.238281 209.671875v-82.773437c.050781-2.117188-.742187-4.164063-2.207031-5.695313-1.464844-1.527344-3.476562-2.414063-5.59375-2.453125h-180.199219v-36.335938c20.992188-3.605468 35.824219-22.554687 34.273438-43.796874-1.546875-21.246094-18.964844-37.84375-40.261719-38.367188-21.292969-.523438-39.507812 15.203125-42.09375 36.34375-2.589844 21.140625 11.292969 40.796875 32.082031 45.429688v36.726562h-178.199219c-2.117187.039062-4.128906.925781-5.59375 2.453125-1.464843 1.53125-2.257812 3.578125-2.207031 5.695313v82.78125c-23.308593 4.261718-40.238281 24.574218-40.238281 48.265624 0 23.695313 16.929688 44.003907 40.238281 48.269532v117.035156c0 4.417969 3.382813 8.5 7.800781 8.5h374.398438c4.417969 0 7.800781-4.082031 7.800781-8.5v-117.042969c23.304688-4.265625 40.234375-24.574219 40.234375-48.265625 0-23.695312-16.929687-44.003906-40.234375-48.269531zm-390 80.113281c-14.285156-3.988281-24.160156-17.003906-24.160156-31.835937 0-14.828125 9.875-27.84375 24.160156-31.835938zm169.609375-248.148437c-.003906-14.023438 11.359375-25.394531 25.382813-25.398438 14.023437-.003906 25.394531 11.363281 25.398437 25.386719 0 14.023438-11.367187 25.394531-25.390625 25.394531-14.011719-.015625-25.367187-11.367187-25.390625-25.382812zm204.390625 374.113281h-358v-281h358zm16-125.976562v-63.671876c14.28125 3.992188 24.160157 17.007813 24.160157 31.835938 0 14.832031-9.878907 27.84375-24.160157 31.835938zm0 0" fill="#083863"/><path d="m328.238281 285.75h-186c-4.417969 0-8 3.582031-8 8v82c0 4.417969 3.582031 8 8 8h186c4.417969 0 8-3.582031 8-8v-82c0-4.417969-3.582031-8-8-8zm-8 82h-170v-25h170zm0-41h-170v-25h170zm0 0" fill="#083863"/><path d="m133.238281 254.75h53c4.417969 0 8-3.582031 8-8v-53c0-4.417969-3.582031-8-8-8h-53c-4.417969 0-8 3.582031-8 8v53c0 4.417969 3.582031 8 8 8zm8-53h37v37h-37zm0 0" fill="#083863"/><path d="m284.238281 254.75h53c4.417969 0 8-3.582031 8-8v-53c0-4.417969-3.582031-8-8-8h-53c-4.417969 0-8 3.582031-8 8v53c0 4.417969 3.582031 8 8 8zm8-53h37v37h-37zm0 0" fill="#083863"/></svg>